# xmcd
#
# Track frame offsets: 
#        187
#        20555
#        42307
#        63802
#        83630
#        97857
#        121292
#        143637
#        166050
#        187887
#        206282
#        228537
#        247540
#
# Disc length: 3463 seconds
#
# Revision: 12
# Processed by: cddbd v1.5.2PL0 Copyright (c) Steve Scherf et al.
# Submitted via: ExactAudioCopy v1.3
#
DISCID=910d850d
DTITLE=The Bodyguard - Whitney Houston The Bodyguard
DYEAR=1992
DGENRE=Soundtrack
TTITLE0=I Will Always Love You - Whitney Houston
TTITLE1=I Have Nothing - Whitney Houston
TTITLE2=I'm Every Woman - Whitney Houston
TTITLE3=Run To You - Whitney Houston
TTITLE4=Queen Of The Night - Whitney Houston
TTITLE5=Jesus Loves Me - Whitney Houston
TTITLE6=Even If My Heart Would Break - Kenny G and Aaron Neville
TTITLE7=Someday (I'm Coming Back) - Lisa Stansfield
TTITLE8=It's Gonna Be A Lovely Day - The S.O.U.L. S.Y.S.T.E.M.
TTITLE9=(What's So Funny 'Bout) Peace, Love And Understanding - Curtis
TTITLE9=Stigers
TTITLE10=Waiting For You - Kenny G
TTITLE11=Trust  In Me - Joe Cocker featuring Sass Jordan
TTITLE12=Theme Grom The Bodyguard
EXTD=YEAR: 1992
EXTT0=
EXTT1=
EXTT2=
EXTT3=
EXTT4=
EXTT5=
EXTT6=
EXTT7=
EXTT8=
EXTT9=
EXTT10=
EXTT11=
EXTT12=
PLAYORDER=
